<svg version="1.0" xmlns="http://www.w3.org/2000/svg" width="1200" height="344" viewBox="0 0 900 258"><path d="M582.7 21c-9.2 2.3-17.3 8.5-21.2 16-4.1 7.8-4.5 13.6-4.5 63 0 39.1.3 48.6 1.6 54 2.7 11.6 7.7 17.9 17.9 22.7 5.4 2.5 7 2.8 17 2.8s11.6-.3 17-2.8c14.7-6.9 19.5-17.3 19.5-43V120h-23v12.2c0 19.6-2.5 24.8-12 24.8-6.1 0-10.2-1.9-11.8-5.5-.9-1.9-1.2-15.8-1.2-51.8 0-47 .1-49.3 2-52.4 3.5-5.8 14.7-6.7 19.2-1.6 2.6 2.9 3.8 9.2 3.8 19.5V75h23V63.7c0-22.8-5.3-33.9-19.4-40.3-4.8-2.2-7.7-2.8-15-3-5-.2-10.8.1-12.9.6zM174.5 24.1c.4 1.1 7.4 24.6 15.6 52.2l14.9 50.1V178h25v-53.3l15-50.4c8.3-27.7 15-50.8 15-51.3 0-.6-4.8-1-11.5-1h-11.4l-.9 3.2c-.5 1.8-4.7 17.8-9.3 35.6-5.4 20.8-8.6 31.6-9 30.4-.8-2.1-17.9-67.7-17.9-68.6 0-.3-5.9-.6-13.1-.6-12.7 0-13 .1-12.4 2.1zM271 100v78h25V22h-25v78zM373 100v78h25v-67h27v67h25V22h-25v67h-27V22h-25v78zM486.6 24.7c-.3 1.6-5.8 35.4-12.1 75.3-6.4 39.9-11.8 73.7-12.1 75.3l-.6 2.7h22.9l1.7-12.3c1-6.7 2-13 2.3-14 .4-1.5 2-1.7 15.4-1.7 8.2 0 14.9.3 14.9.7 0 .5.9 6.4 2 13.3s2 12.8 2 13.2c0 .5 5.7.8 12.6.8h12.6l-.6-2.7c-.3-1.6-5.7-35.4-12.1-75.3-6.3-39.9-11.8-73.7-12.1-75.3l-.6-2.7h-35.6l-.6 2.7zm23 63.3c3 20.4 5.4 38 5.4 39.1 0 1.8-.8 1.9-11.6 1.9h-11.6l.5-2.8c.3-1.5 2.9-19.2 5.8-39.4 3-20.1 5.5-36.5 5.7-36.3.2.1 2.8 17 5.8 37.5zM645 100v78h25v-24.3l-.1-24.2 3.3-6.2c1.8-3.5 3.5-6.3 3.8-6.3.3 0 5.7 13.6 12.1 30.3l11.6 30.2 12.6.3c7 .1 12.7.1 12.7 0 0-.2-7.6-19.7-17-43.3l-16.9-43L706.6 62c8.1-16.2 15.7-31.9 17-34.8L726 22h-24.5L686 55.1l-15.5 33.2-.3-33.2L670 22h-25v78zM312 100v11h45V89h-45v11zM26.2 213.2c-1.5 1.5-1.5 6.1 0 7.6 1.7 1.7 844.9 1.7 846.6 0 1.5-1.5 1.5-6.1 0-7.6-1.7-1.7-844.9-1.7-846.6 0z"/></svg>